<!-- Generated by IcoMoon.io -->
<svg version="1.1" xmlns="http://www.w3.org/2000/svg" width="448" height="448" viewBox="0 0 448 448">
<title></title>
<g id="icomoon-ignore">
</g>
<path fill="#000" d="M448 160c0 4.25-1.75 8.25-4.75 11.25l-128 128c-3 3-7 4.75-11.25 4.75-8.75 0-16-7.25-16-16v-64h-56c-107.75 0-178.5 20.75-178.5 140 0 10.25 0.5 20.5 1.25 30.75 0.25 4 1.25 8.5 1.25 12.5 0 4.75-3 8.75-8 8.75-3.5 0-5.25-1.75-7-4.25-3.75-5.25-6.5-13.25-9.25-19-14.25-32-31.75-77.75-31.75-112.75 0-28 2.75-56.75 13.25-83.25 34.75-86.25 136.75-100.75 218.75-100.75h56v-64c0-8.75 7.25-16 16-16 4.25 0 8.25 1.75 11.25 4.75l128 128c3 3 4.75 7 4.75 11.25z"></path>
</svg>
